<?xml version="1.0" standalone="no"?><!DOCTYPE svg PUBLIC "-//W3C//DTD SVG 1.1//EN" "http://www.w3.org/Graphics/SVG/1.1/DTD/svg11.dtd"><svg t="1658979606564" class="icon" viewBox="0 0 1024 1024" version="1.1" xmlns="http://www.w3.org/2000/svg" p-id="2208" xmlns:xlink="http://www.w3.org/1999/xlink" width="200" height="200"><defs><style type="text/css">@font-face { font-family: feedback-iconfont; src: url("//at.alicdn.com/t/font_1031158_u69w8yhxdu.woff2?t=1630033759944") format("woff2"), url("//at.alicdn.com/t/font_1031158_u69w8yhxdu.woff?t=1630033759944") format("woff"), url("//at.alicdn.com/t/font_1031158_u69w8yhxdu.ttf?t=1630033759944") format("truetype"); }
</style></defs><path d="M192 576V224a32 32 0 0 1 32-32h352a32 32 0 0 1 22.72 54.72L256 589.44V800a32 32 0 1 1-64 0v-224z m64-77.12L498.88 256H256v242.88z m516.384 48.512A160 160 0 0 1 672 832H352a32 32 0 1 1 0-64h220.16a32 32 0 1 0 0-64H352a32 32 0 1 1 0-64h220.16a96 96 0 0 1 90.56 128H672a96 96 0 1 0 0-192h-192a32 32 0 1 1 0-64h224a32 32 0 0 0 0-64h-96a32 32 0 0 1 0-64h96a96 96 0 0 1 68.384 163.392z" p-id="2209"></path></svg>