<?xml version="1.0" standalone="no"?><!DOCTYPE svg PUBLIC "-//W3C//DTD SVG 1.1//EN" "http://www.w3.org/Graphics/SVG/1.1/DTD/svg11.dtd"><svg t="1677465597753" class="icon" viewBox="0 0 1024 1024" version="1.1" xmlns="http://www.w3.org/2000/svg" p-id="1508" xmlns:xlink="http://www.w3.org/1999/xlink" width="200" height="200"><path d="M512 253.016c185.292 0 335.5 150.209 335.5 335.5 0 185.292-150.208 335.5-335.5 335.5s-335.5-150.208-335.5-335.5c0-185.291 150.208-335.5 335.5-335.5z m-38.192 207.828c-20.225 0.34-36.796 3.824-49.713 10.452-13.087 6.968-23.285 14.872-30.593 23.71-9.857 10.027-17.166 22.349-21.925 36.966-4.588 14.956-6.883 36.37-6.883 64.244 0 27.873 2.295 49.118 6.883 63.735 4.76 14.616 12.068 27.278 21.925 37.986 7.308 8.328 17.506 15.806 30.593 22.434 12.917 7.309 29.488 11.133 49.713 11.473 20.905-0.34 37.816-4.164 50.733-11.473 6.968-3.059 12.662-6.713 17.08-10.962 4.93-3.74 9.094-7.563 12.493-11.472 10.537-10.708 18.015-23.37 22.434-37.986 4.25-14.617 6.374-35.862 6.374-63.735 0-27.873-2.125-49.288-6.374-64.244-4.419-14.617-11.897-26.939-22.434-36.967-6.969-8.837-16.826-16.74-29.573-23.709-12.917-6.628-29.828-10.112-50.733-10.452z m171.099 129.095c-9.518 0.114-17.534 3.456-24.05 10.028-6.329 6.607-9.774 14.928-10.336 24.962l-0.031 0.617h17.676l0.062-0.528c0.686-5.41 2.648-9.626 5.886-12.644 3.23-3.116 7.28-4.674 12.152-4.674 5.496 0.113 9.745 1.898 12.747 5.354 2.89 3.456 4.334 7.506 4.334 12.152 0 1.756-0.226 3.626-0.68 5.609-0.637 1.965-1.797 4.08-3.48 6.343l-0.344 0.455-48.353 60.505v16.741h70.618V697.1h-47.334l39.856-49.968 0.352-0.455c4.75-6.236 7.126-13.336 7.126-21.3-0.113-10.198-3.54-18.61-10.283-25.24-6.628-6.684-15.268-10.083-25.918-10.197z m-171.099-75.813c9.688 0 18.186 1.784 25.494 5.354 7.648 3.399 13.427 8.073 17.336 14.021 5.268 6.289 8.753 13.597 10.452 21.925 1.7 8.668 2.55 22.435 2.55 41.3 0 18.016-0.85 31.272-2.55 39.77-1.7 8.668-5.184 16.317-10.452 22.945-3.91 5.099-9.688 9.603-17.336 13.512-7.308 3.739-15.806 5.608-25.494 5.608-9.008 0-17.336-1.87-24.984-5.608-7.308-3.91-13.257-8.413-17.846-13.512-4.589-6.628-7.903-14.277-9.942-22.945-2.007-8.36-3.026-21.492-3.059-39.396v-0.884c0-18.525 1.02-32.122 3.059-40.79 2.04-8.328 5.353-15.636 9.942-21.925 4.59-5.948 10.538-10.622 17.846-14.021 7.648-3.57 15.976-5.354 24.984-5.354zM203.011 230.984c26.51 0 48 21.49 48 48s-21.49 48-48 48-48-21.49-48-48 21.49-48 48-48z m511-66c31.48 0 57 25.52 57 57s-25.52 57-57 57-57-25.52-57-57 25.52-57 57-57z m-312-52c18.226 0 33 14.774 33 33 0 18.225-14.774 33-33 33-18.225 0-33-14.775-33-33 0-18.226 14.775-33 33-33z m439.5 9c15.74 0 28.5 12.76 28.5 28.5s-12.76 28.5-28.5 28.5-28.5-12.76-28.5-28.5 12.76-28.5 28.5-28.5z" p-id="1509"></path></svg>