<?xml version="1.0" standalone="no"?><!DOCTYPE svg PUBLIC "-//W3C//DTD SVG 1.1//EN" "http://www.w3.org/Graphics/SVG/1.1/DTD/svg11.dtd"><svg t="1677641511460" class="icon" viewBox="0 0 1024 1024" version="1.1" xmlns="http://www.w3.org/2000/svg" p-id="1468" xmlns:xlink="http://www.w3.org/1999/xlink" width="200" height="200"><path d="M760.81 832.636c-136.12 135.283-355.74 136.62-493.488 4.016l-4.149-4.06-1.88-1.879a349.638 349.638 0 0 1-101.48-246.302c0-92.301 36.497-180.83 101.395-246.218l1.976-1.974 248.808-247.33 239.236 237.847 9.501 9.422a349.639 349.639 0 0 1 103.414 242.716l0.033 2.767 0.011 2.628-0.01 2.963c-0.737 92.224-37.89 180.48-103.368 245.404zM488.082 559.893c13.26 0 24.01-10.75 24.01-24.01 0-13.26-10.75-24.01-24.01-24.01-13.26 0-24.01 10.75-24.01 24.01 0 13.26 10.75 24.01 24.01 24.01z m230.594 50.394c8.012 0 14.506-6.495 14.506-14.506s-6.494-14.506-14.506-14.506c-8.011 0-14.506 6.495-14.506 14.506s6.495 14.506 14.506 14.506zM334.636 691.82c26.52 0 48.02-21.499 48.02-48.02 0-26.52-21.5-48.019-48.02-48.019-26.52 0-48.02 21.5-48.02 48.02 0 26.52 21.5 48.02 48.02 48.02z m271.111 33.014c18.233 0 33.014-14.78 33.014-33.014 0-18.232-14.781-33.013-33.014-33.013-18.233 0-33.013 14.78-33.013 33.013 0 18.233 14.78 33.014 33.013 33.014z m-139.673 96.04c13.26 0 24.01-10.75 24.01-24.01 0-13.26-10.75-24.01-24.01-24.01-13.26 0-24.01 10.75-24.01 24.01 0 13.26 10.75 24.01 24.01 24.01z" p-id="1469"></path></svg>