<?xml version="1.0" standalone="no"?><!DOCTYPE svg PUBLIC "-//W3C//DTD SVG 1.1//EN" "http://www.w3.org/Graphics/SVG/1.1/DTD/svg11.dtd"><svg t="1677641515205" class="icon" viewBox="0 0 1024 1024" version="1.1" xmlns="http://www.w3.org/2000/svg" p-id="1607" xmlns:xlink="http://www.w3.org/1999/xlink" width="200" height="200"><path d="M741.63 753.106A297.945 297.945 0 0 0 791.071 591.1l0.01-2.525-0.01-2.24a297.9 297.9 0 0 0-88.139-209.156l-8.095-8.028-160.863-159.929L652.399 91.5l191.112 190.003 7.59 7.527a279.307 279.307 0 0 1 82.612 193.892l0.026 2.21 0.009 2.1-0.009 2.367c-0.588 73.673-30.267 144.174-82.574 196.039-31.886 31.69-69.509 54.18-109.536 67.468z m-555.458 91.548l-3.702-3.621-1.677-1.677a311.947 311.947 0 0 1-90.54-219.75c0-82.352 32.562-161.337 90.464-219.676l1.763-1.762L404.467 177.5l213.446 212.208 8.477 8.406a311.948 311.948 0 0 1 92.266 216.551l0.03 2.469 0.009 2.344-0.01 2.644c-0.657 82.283-33.804 161.023-92.224 218.95-121.445 120.699-317.39 121.892-440.29 3.582zM366.114 696.75h33.88v-199.36h-39.76v97.44l-41.44-97.44h-34.72v199.36h39.76v-97.44l42.28 97.44z m94.64 2.24c7.56 0 12.04-1.68 16.52-4.76 3.92-2.52 6.72-6.16 9.8-9.8v12.32h35v-103.04c0-17.08-5.88-29.12-14.28-37.52-8.96-8.96-21.84-12.32-34.72-12.32-13.16 0-27.44 5.88-35 13.44-9.8 10.08-13.72 21.28-13.72 33.6h37.52c0-4.2 1.12-7.56 3.36-10.36 1.96-2.24 4.2-3.64 8.12-3.64 7 0 11.2 4.76 11.2 13.16v17.36h-11.48c-19.6 0-29.4 4.2-36.96 10.64-9.52 8.12-14.56 19.88-14.56 33.6 0 14.28 2.24 25.48 8.68 33.32 8.12 10.08 16.52 14 30.52 14z m11.2-32.76c-7.84 0-12.88-5.32-12.88-16.24 0-3.92 1.68-10.08 4.76-12.88 3.741-3.475 7.738-3.633 13.452-3.64h7.268v16.52c0 10.64-5.88 16.24-12.6 16.24z" p-id="1608"></path></svg>