<?xml version="1.0" encoding="UTF-8"?>
<svg width="1024px" height="1024px" viewBox="0 0 1024 1024" version="1.1" xmlns="http://www.w3.org/2000/svg" xmlns:xlink="http://www.w3.org/1999/xlink">
    <title>湿度</title>
    <g id="后台系统icon" stroke="none" stroke-width="1" fill="none" fill-rule="evenodd">
        <g id="湿度">
            <rect id="Rectangle" x="0" y="0" width="1024" height="1024"></rect>
            <g id="编组-2" transform="translate(512.000000, 512.000000) rotate(-180.000000) translate(-512.000000, -512.000000) translate(159.812799, 88.888565)" fill="#333333" fill-rule="nonzero">
                <path d="M103.377745,102.475652 C239.497126,-32.8071449 459.117571,-34.1444734 596.865068,98.4594433 L601.014004,102.518742 L602.893701,104.398138 C667.889243,169.88207 704.374401,258.415464 704.374401,350.700337 C704.374401,443.001649 667.87753,531.530327 602.978748,596.918098 L601.003433,598.892442 L352.194936,846.222869 L112.959362,608.3751 L103.457727,598.953397 C38.5814612,534.625412 1.49409014,447.493703 0.0438588226,356.23711 L0.010828723,353.470516 L-5.09828624e-10,350.842535 L0.0108283754,347.878965 C0.747325489,255.655021 37.899572,167.400359 103.377745,102.475652 Z M376.104622,375.218407 C362.844353,375.218407 352.094781,385.967979 352.094781,399.228248 C352.094781,412.488517 362.844353,423.23809 376.104622,423.23809 C389.364892,423.23809 400.114464,412.488517 400.114464,399.228248 C400.114464,385.967979 389.364892,375.218407 376.104622,375.218407 Z M145.510105,324.824406 C137.498692,324.824406 131.004159,331.318939 131.004159,339.330352 C131.004159,347.341764 137.498692,353.836298 145.510105,353.836298 C153.521517,353.836298 160.016051,347.341764 160.016051,339.330352 C160.016051,331.318939 153.521517,324.824406 145.510105,324.824406 Z M529.551273,243.290987 C503.030735,243.290987 481.53159,264.790131 481.53159,291.310669 C481.53159,317.831208 503.030735,339.330352 529.551273,339.330352 C556.071811,339.330352 577.570956,317.831208 577.570956,291.310669 C577.570956,264.790131 556.071811,243.290987 529.551273,243.290987 Z M258.440148,210.277455 C240.207278,210.277455 225.426616,225.058116 225.426616,243.290987 C225.426616,261.523857 240.207278,276.304518 258.440148,276.304518 C276.673018,276.304518 291.45368,261.523857 291.45368,243.290987 C291.45368,225.058116 276.673018,210.277455 258.440148,210.277455 Z M398.113644,114.23809 C384.853374,114.23809 374.103802,124.987662 374.103802,138.247931 C374.103802,151.5082 384.853374,162.257772 398.113644,162.257772 C411.373913,162.257772 422.123485,151.5082 422.123485,138.247931 C422.123485,124.987662 411.373913,114.23809 398.113644,114.23809 Z" id="形状"></path>
            </g>
        </g>
    </g>
</svg>