<?xml version="1.0" encoding="UTF-8"?>
<svg width="1024px" height="1024px" viewBox="0 0 1024 1024" version="1.1" xmlns="http://www.w3.org/2000/svg" xmlns:xlink="http://www.w3.org/1999/xlink">
    <title>碱度</title>
    <g id="后台系统icon" stroke="none" stroke-width="1" fill="none" fill-rule="evenodd">
        <g id="碱度">
            <rect id="Rectangle" x="0" y="0" width="1024" height="1024"></rect>
            <g id="编组-2" transform="translate(512.000000, 512.000000) rotate(-180.000000) translate(-512.000000, -512.000000) translate(90.252110, 91.500000)" fill="#333333" fill-rule="nonzero">
                <path d="M192.118798,179.393677 C160.547693,227.110786 143.139467,283.332089 142.675736,341.400326 L142.66651,343.92535 L142.675736,346.164446 C143.303554,424.772473 174.980398,499.958671 230.814708,555.321116 L238.910304,563.348609 L399.773,723.277677 L281.348785,841 L90.2369,650.996754 L82.6465768,643.470283 C30.820566,592.082264 1.19354483,522.477627 0.0350363545,449.577852 L0.00865046005,447.367775 L-1.30739863e-12,445.268428 L0.00865018235,442.900999 C0.596996429,369.228461 30.275843,298.72676 82.5826839,246.862052 C114.469197,215.171512 152.091645,192.682082 192.118798,179.393677 Z M747.575958,87.8455102 L751.277638,91.4672164 L752.954704,93.1440134 C810.943724,151.568774 843.495779,230.558264 843.495779,312.894823 C843.495779,395.246048 810.933272,474.23133 753.030583,532.570296 L751.268207,534.331806 L529.281278,755 L315.835312,542.792233 L307.357954,534.386189 C249.475353,476.992765 216.386002,399.253859 215.092106,317.834731 L215.062637,315.366376 L215.052975,313.021691 L215.062636,310.377595 C215.719739,228.095397 248.866971,149.354592 307.286594,91.4287713 C428.732299,-29.270533 624.677648,-30.4636974 747.575958,87.8455102 Z M567.634377,235.751435 L533.754377,235.751435 L533.754377,435.111435 L573.514377,435.111435 L573.514377,337.671435 L614.954377,435.111435 L649.674377,435.111435 L649.674377,235.751435 L609.914377,235.751435 L609.914377,333.191435 L567.634377,235.751435 Z M472.994377,233.511435 C465.434377,233.511435 460.954377,235.191435 456.474377,238.271435 C452.554377,240.791435 449.754377,244.431435 446.674377,248.071435 L446.674377,235.751435 L411.674377,235.751435 L411.674377,338.791435 C411.674377,355.871435 417.554377,367.911435 425.954377,376.311435 C434.914377,385.271435 447.794377,388.631435 460.674377,388.631435 C473.834377,388.631435 488.114377,382.751435 495.674377,375.191435 C505.474377,365.111435 509.394377,353.911435 509.394377,341.591435 L471.874377,341.591435 C471.874377,345.791435 470.754377,349.151435 468.514377,351.951435 C466.554377,354.191435 464.314377,355.591435 460.394377,355.591435 C453.394377,355.591435 449.194377,350.831435 449.194377,342.431435 L449.194377,325.071435 L460.674377,325.071435 C480.274377,325.071435 490.074377,320.871435 497.634377,314.431435 C507.154377,306.311435 512.194377,294.551435 512.194377,280.831435 C512.194377,266.551435 509.954377,255.351435 503.514377,247.511435 C495.394377,237.431435 486.994377,233.511435 472.994377,233.511435 Z M461.794377,266.271435 C469.634377,266.271435 474.674377,271.591435 474.674377,282.511435 C474.674377,286.431435 472.994377,292.591435 469.914377,295.391435 C466.172559,298.86598 462.175617,299.023914 456.462386,299.031093 L449.194377,299.031435 L449.194377,282.511435 C449.194377,271.871435 455.074377,266.271435 461.794377,266.271435 Z" id="形状结合"></path>
            </g>
        </g>
    </g>
</svg>