<?xml version="1.0" encoding="UTF-8"?>
<svg width="46px" height="63px" viewBox="0 0 46 63" version="1.1" xmlns="http://www.w3.org/2000/svg" xmlns:xlink="http://www.w3.org/1999/xlink">
    <title>编组 13备份 3</title>
    <defs>
        <linearGradient x1="0%" y1="50%" x2="202.72662%" y2="50%" id="linearGradient-1">
            <stop stop-color="#537AB3" offset="0%"></stop>
            <stop stop-color="#DAEBF9" offset="100%"></stop>
        </linearGradient>
        <linearGradient x1="45.6494298%" y1="58.7999395%" x2="54.3505702%" y2="50%" id="linearGradient-2">
            <stop stop-color="#A6C4EB" offset="0%"></stop>
            <stop stop-color="#C8E0FF" offset="100%"></stop>
        </linearGradient>
        <linearGradient x1="0%" y1="52.4482466%" x2="105.004034%" y2="52.3480712%" id="linearGradient-3">
            <stop stop-color="#506F9C" offset="0%"></stop>
            <stop stop-color="#516D95" offset="6.31346127%"></stop>
            <stop stop-color="#577CAF" offset="38.9930731%"></stop>
            <stop stop-color="#6887AE" offset="58.0874939%"></stop>
            <stop stop-color="#8AA7CC" offset="62.3008738%"></stop>
            <stop stop-color="#A2BCDD" offset="78.2248923%"></stop>
            <stop stop-color="#A5B9D3" offset="100%"></stop>
        </linearGradient>
        <linearGradient x1="0%" y1="52.4482466%" x2="105.004034%" y2="52.3480712%" id="linearGradient-4">
            <stop stop-color="#648CC6" offset="0%"></stop>
            <stop stop-color="#5B7CAC" offset="6.31346127%"></stop>
            <stop stop-color="#688DBF" offset="38.9930731%"></stop>
            <stop stop-color="#7393BA" offset="58.0874939%"></stop>
            <stop stop-color="#91AED2" offset="62.3008738%"></stop>
            <stop stop-color="#B8D4F7" offset="78.2248923%"></stop>
            <stop stop-color="#BDD4F1" offset="100%"></stop>
        </linearGradient>
        <linearGradient x1="0%" y1="50%" x2="202.72662%" y2="50%" id="linearGradient-5">
            <stop stop-color="#5785C9" offset="0%"></stop>
            <stop stop-color="#D7ECFF" offset="100%"></stop>
        </linearGradient>
        <linearGradient x1="5.53781603%" y1="51.4102062%" x2="97.4658943%" y2="48.4855377%" id="linearGradient-6">
            <stop stop-color="#84B0F1" offset="0%"></stop>
            <stop stop-color="#B0D2F1" offset="100%"></stop>
        </linearGradient>
        <linearGradient x1="5.53781603%" y1="55.8619213%" x2="97.4658943%" y2="43.7047087%" id="linearGradient-7">
            <stop stop-color="#84B0F1" offset="0%"></stop>
            <stop stop-color="#B0D2F1" offset="100%"></stop>
        </linearGradient>
    </defs>
    <g id="设备插画" stroke="none" stroke-width="1" fill="none" fill-rule="evenodd">
        <g id="画板" transform="translate(-578.000000, -218.000000)">
            <g id="编组-13备份-3" transform="translate(578.341755, 218.652901)">
                <path d="M23.2184903,58.9654362 L23.2184903,60.7506997 L26.6055619,61.8892757 C26.9430256,62.0027153 27.3153529,61.9281828 27.583146,61.6935828 L30.5152278,59.1249345 L30.5152278,59.1249345 L30.5152278,56.7699156 L23.2184903,58.9654362 Z" id="路径-5" fill="#426496"></path>
                <g id="编组-7" transform="translate(38.223349, 45.797372)">
                    <polygon id="路径-8" fill="#385B8D" points="2.01179695 4.13826985 2.01179695 2.30894803 2.84217094e-14 3.58297934"></polygon>
                    <polygon id="路径-7" fill="#6483B0" points="4.55281716 0 4.55281716 1.7162374 2.01179695 4.13826985 2.01179695 1.32189978"></polygon>
                </g>
                <g id="编组-6" transform="translate(2.551060, 52.469016)">
                    <path d="M0.692161854,1.85448502 C0.27953904,1.72098085 7.54951657e-15,1.33672929 7.54951657e-15,0.903046281 L7.54951657e-15,-2.13162821e-14 L3.74852395,1.20635603 L3.74852395,2.84337143 L0.692161854,1.85448502 Z" id="路径" fill="#3D5C8A"></path>
                    <polygon id="路径备份" fill="#32527D" points="3.74852395 1.20635603 5.34667108 1.73576144 3.74852395 2.84337143"></polygon>
                </g>
                <polygon id="路径-63" fill="url(#linearGradient-1)" points="27.1506184 19.5632372 2.55105986 13.3772857 2.55105986 52.969016 27.1506184 60.9441579"></polygon>
                <polygon id="矩形备份-30" fill="url(#linearGradient-2)" points="27.1506184 19.5632372 42.7761662 7.97206142 42.7761662 46.2973715 27.1506184 60.9441579"></polygon>
                <g id="编组-5备份" transform="translate(1.985916, 5.266603)">
                    <path d="M10.8331674,2.70831614 C13.7083119,0.552825055 17.3981028,-0.200755144 20.8881925,0.654739652 L20.8881925,0.654739652 L38.72,5.02561457 L38.7203276,4.92467318 L41.0439287,3.41967216 L41.0439287,6.42800372 L40.998555,6.43499034 C40.9797749,6.71782647 40.8415074,6.9908927 40.595877,7.17281751 L40.595877,7.17281751 L25.7730188,18.1512841 C25.5325341,18.3293978 25.2249194,18.3904464 24.9346429,18.3176665 L24.9346429,18.3176665 L0.801151938,12.2667718 C0.578539835,12.2109572 0.381900573,12.0802694 0.244234491,11.8966408 C0.115089282,11.7243779 0.0499148694,11.5240173 0.0446400511,11.3240182 L-1.0658141e-14,11.3080253 L-1.0658141e-14,8.42126027 L2.566,8.90561457 Z" id="形状结合备份" fill="url(#linearGradient-3)"></path>
                    <path d="M10.8331674,2.39870157 C13.7083119,0.243210488 17.3981028,-0.510369712 20.8881925,0.345125084 L20.8881925,0.345125084 L38.72,4.716 L38.7203276,4.61505861 L41.0439287,3.11005759 L41.0439287,6.11838915 L40.998555,6.12537577 C40.9797749,6.4082119 40.8415074,6.68127813 40.595877,6.86320294 L40.595877,6.86320294 L25.7730188,17.8416696 C25.5325341,18.0197832 25.2249194,18.0808318 24.9346429,18.0080519 L24.9346429,18.0080519 L0.801151938,11.9571573 C0.578539835,11.9013426 0.381900573,11.7706548 0.244234491,11.5870262 C0.115089282,11.4147633 0.0499148694,11.2144028 0.0446400511,11.0144037 L-1.0658141e-14,10.9984107 L-1.0658141e-14,8.1116457 L2.566,8.596 Z" id="形状结合" fill="url(#linearGradient-4)"></path>
                </g>
                <g id="编组-5">
                    <path d="M12.6411815,5.03902259 C15.5163259,2.8835315 19.2061168,2.12995131 22.6962065,2.9854461 L22.6962065,2.9854461 L42.4130399,7.81803691 L42.4132754,7.32538117 L43.7367498,7.33426193 L43.7367498,9.00429704 C43.7122228,9.28379552 43.5744136,9.55173215 43.3322549,9.73108559 L43.3322549,9.73108559 L27.9263589,21.141376 C27.6858742,21.3194896 27.3782595,21.3805382 27.087983,21.3077583 L27.087983,21.3077583 L2.03660585,15.0267257 C1.81399374,14.970911 1.61735448,14.8402233 1.4796884,14.6565946 C1.34406433,14.4756898 1.27899054,14.2637974 1.27975183,14.0538782 L1.27803991,14.0525326 L1.27803991,12.3642029 L1.96603991,13.0410369 Z" id="形状结合" fill="#476893"></path>
                    <path d="M2.03660585,13.3926865 L27.087983,19.6737191 C27.3782595,19.746499 27.6858742,19.6854505 27.9263589,19.5073368 L43.3322549,8.09704642 C43.7760678,7.76833894 43.8693791,7.14208748 43.5406716,6.69827464 C43.401808,6.51078436 43.2017568,6.37775095 42.9751506,6.32220499 L22.6962065,1.35140694 C19.2061168,0.49591214 15.5163259,1.24949234 12.6411815,3.40498342 L1.67995871,11.6225941 C1.23806693,11.9538796 1.14840286,12.5806637 1.4796884,13.0225555 C1.61735448,13.2061841 1.81399374,13.3368719 2.03660585,13.3926865 Z" id="路径-64备份-2" fill="url(#linearGradient-5)"></path>
                </g>
                <g id="编组-5备份-2" transform="translate(5.264472, 1.061779)">
                    <path d="M8.77462562,4.67132726 C11.6497701,2.51583618 15.339561,1.76225598 18.8296507,2.61775077 L18.8296507,2.61775077 L32.5724126,5.98662569 L32.5725352,5.6770067 L33.5981983,5.6838891 L33.5992216,6.95849685 C33.6200887,7.28589133 33.4796064,7.61686244 33.1963647,7.82664381 L33.1963647,7.82664381 L21.7277818,16.3207853 C21.487297,16.498899 21.1796824,16.5599476 20.8894058,16.4871677 L20.8894058,16.4871677 L2.03660585,11.7602798 C1.81399374,11.7044651 1.61735448,11.5737774 1.4796884,11.3901487 C1.36683289,11.2396142 1.30282807,11.0676231 1.28495715,10.8931668 L1.27741258,10.8903987 L1.27741258,9.58198097 L1.68641258,9.98462569 Z" id="形状结合" fill="#476893"></path>
                    <path d="M2.03660585,10.4939359 L20.8894058,15.2208239 C21.1796824,15.2936037 21.487297,15.2325552 21.7277818,15.0544415 L33.1963647,6.56029998 C33.6401775,6.23159249 33.7334888,5.60534103 33.4047813,5.1615282 C33.2659177,4.97403792 33.0658665,4.84100451 32.8392604,4.78545854 L18.8296507,1.35140694 C15.339561,0.49591214 11.6497701,1.24949234 8.77462562,3.40498342 L1.67995871,8.72384354 C1.23806693,9.05512907 1.14840286,9.68191312 1.4796884,10.1238049 C1.61735448,10.3074335 1.81399374,10.4381213 2.03660585,10.4939359 Z" id="路径-64备份-2" fill="url(#linearGradient-6)"></path>
                </g>
                <g id="编组-8" transform="translate(4.229657, 41.400571)">
                    <polygon id="路径-64备份-5" fill="#2F4C72" points="-1.79487321e-15 1.95715428 21.3479187 7.30963343 21.3479187 5.1857132 -1.55655873e-12 -2.26485497e-14"></polygon>
                    <path d="M-1.77635684e-15,-2.26485497e-14 L0.389,0.094 L0.389522147,1.68232469 L21.347,6.936 L21.3479187,7.30963343 L-1.77635684e-15,1.95715428 L-1.77635684e-15,-2.26485497e-14 Z" id="形状结合" fill="#456A9B"></path>
                    <polygon id="路径-64备份-9" fill="#456A9B" points="10.4933538 4.58856426 11.0634815 4.73563297 11.2562244 4.41001947 11.2562244 2.72749693 10.4933538 2.54695963"></polygon>
                    <polygon id="路径-64备份-6" fill="#7D9DC9" points="10.2925241 4.54384629 11.0553946 4.73563297 11.0553946 2.68020466 10.2925241 2.49966735"></polygon>
                </g>
                <polygon id="矩形" fill="url(#linearGradient-7)" opacity="0.454386393" points="4.22965745 22.3739304 25.4720208 27.4495677 25.4720208 41.4005705 4.22965745 36.3249333"></polygon>
            </g>
        </g>
    </g>
</svg>