<?xml version="1.0" encoding="UTF-8"?>
<svg width="46px" height="139px" viewBox="0 0 46 139" version="1.1" xmlns="http://www.w3.org/2000/svg" xmlns:xlink="http://www.w3.org/1999/xlink">
    <title>摄像头</title>
    <defs>
        <linearGradient x1="0%" y1="50%" x2="125.8606%" y2="50%" id="linearGradient-1">
            <stop stop-color="#3F659D" offset="0%"></stop>
            <stop stop-color="#97B8D1" offset="100%"></stop>
        </linearGradient>
        <linearGradient x1="100%" y1="50%" x2="0%" y2="50%" id="linearGradient-2">
            <stop stop-color="#CFE7FD" offset="0%"></stop>
            <stop stop-color="#A2C2E9" offset="100%"></stop>
        </linearGradient>
        <linearGradient x1="0%" y1="50%" x2="141.729029%" y2="50%" id="linearGradient-3">
            <stop stop-color="#638DCB" offset="0%"></stop>
            <stop stop-color="#C7F1F7" offset="100%"></stop>
        </linearGradient>
        <linearGradient x1="0%" y1="50%" x2="100%" y2="50%" id="linearGradient-4">
            <stop stop-color="#638DCB" offset="0%"></stop>
            <stop stop-color="#C7F1F7" offset="100%"></stop>
        </linearGradient>
        <linearGradient x1="0%" y1="50%" x2="100%" y2="50%" id="linearGradient-5">
            <stop stop-color="#638DCB" offset="0%"></stop>
            <stop stop-color="#C7F1F7" offset="100%"></stop>
        </linearGradient>
        <linearGradient x1="50%" y1="26.242778%" x2="63.5484083%" y2="73.0734889%" id="linearGradient-6">
            <stop stop-color="#597AAA" offset="0%"></stop>
            <stop stop-color="#9FBBD0" offset="100%"></stop>
        </linearGradient>
        <linearGradient x1="55.0258396%" y1="29.600238%" x2="35.8947531%" y2="-12.1854998%" id="linearGradient-7">
            <stop stop-color="#6284B5" offset="0%"></stop>
            <stop stop-color="#C7F1F7" offset="100%"></stop>
        </linearGradient>
        <linearGradient x1="-26.0229765%" y1="35.7572035%" x2="100%" y2="62.1138619%" id="linearGradient-8">
            <stop stop-color="#6282B0" offset="0%"></stop>
            <stop stop-color="#94B1CC" offset="100%"></stop>
        </linearGradient>
        <linearGradient x1="92.9440837%" y1="31.3913595%" x2="29.1103654%" y2="64.849345%" id="linearGradient-9">
            <stop stop-color="#9CB5D9" offset="0%"></stop>
            <stop stop-color="#B4C9DC" offset="100%"></stop>
        </linearGradient>
        <linearGradient x1="0%" y1="50%" x2="100%" y2="50%" id="linearGradient-10">
            <stop stop-color="#ADCAF5" offset="0%"></stop>
            <stop stop-color="#E7F5FF" offset="100%"></stop>
        </linearGradient>
        <linearGradient x1="7.42372338%" y1="25.8079719%" x2="92.5762766%" y2="74.8911542%" id="linearGradient-11">
            <stop stop-color="#92ACD3" offset="0%"></stop>
            <stop stop-color="#BFD9F1" offset="100%"></stop>
        </linearGradient>
        <linearGradient x1="40.9096418%" y1="85.4853134%" x2="50%" y2="-9.05763224%" id="linearGradient-12">
            <stop stop-color="#B7CDEF" offset="0%"></stop>
            <stop stop-color="#EEF8FF" offset="100%"></stop>
        </linearGradient>
        <linearGradient x1="57.3956006%" y1="0%" x2="14.6956172%" y2="68.9821139%" id="linearGradient-13">
            <stop stop-color="#758EA9" offset="0%"></stop>
            <stop stop-color="#2A384A" offset="100%"></stop>
        </linearGradient>
        <linearGradient x1="0%" y1="50%" x2="100%" y2="50%" id="linearGradient-14">
            <stop stop-color="#B8CEEE" offset="0%"></stop>
            <stop stop-color="#D7ECFF" offset="100%"></stop>
        </linearGradient>
        <linearGradient x1="0%" y1="50%" x2="202.72662%" y2="50%" id="linearGradient-15">
            <stop stop-color="#5785C9" offset="0%"></stop>
            <stop stop-color="#D7ECFF" offset="100%"></stop>
        </linearGradient>
        <linearGradient x1="0%" y1="50%" x2="202.72662%" y2="50%" id="linearGradient-16">
            <stop stop-color="#5785C9" offset="0%"></stop>
            <stop stop-color="#D7ECFF" offset="100%"></stop>
        </linearGradient>
    </defs>
    <g id="页面-1" stroke="none" stroke-width="1" fill="none" fill-rule="evenodd">
        <g id="画板" transform="translate(-440.000000, -57.000000)">
            <g id="摄像头" transform="translate(440.250409, 57.810654)">
                <g id="编组-23" transform="translate(2.771554, 129.296752)">
                    <path d="M14.9494098,4.7682589 C14.9494098,6.72370573 11.6028704,8.30890859 7.47470491,8.30890859 C3.34653938,8.30890859 -1.31670674e-10,6.72370573 -1.31670674e-10,4.7682589 L0.000999999934,4.7966092 L-6.58353372e-11,4.79669985 L-6.58353372e-11,3.54064969 L0.333263985,3.71962727 C1.27685493,2.2761481 4.11727502,1.2276092 7.47470491,1.2276092 C10.9276601,1.2276092 13.8337671,2.33666275 14.6920484,3.84378051 L14.9494098,3.68904628 Z" id="形状结合" fill="url(#linearGradient-1)"></path>
                    <ellipse id="椭圆形" fill="url(#linearGradient-2)" cx="7.47470491" cy="3.54064969" rx="7.47470491" ry="3.54064969"></ellipse>
                </g>
                <path d="M20.559718,10.0641189 L20.5676066,9.98587587 C20.6458529,9.59999054 21.296546,9.29886225 22.087668,9.29886225 C22.9315314,9.29886225 23.6156179,9.64147933 23.6156179,10.0641189 L23.6156179,10.0641189 L23.6156179,35.7686368 C23.6156179,36.1912764 22.9315314,36.5338935 22.087668,36.5338935 C21.2438045,36.5338935 20.559718,36.1912764 20.559718,35.7686368 L20.559718,35.7686368 L20.559718,10.0641189 Z" id="形状结合备份-7" fill="url(#linearGradient-3)" transform="translate(22.087668, 22.916378) rotate(-93.000000) translate(-22.087668, -22.916378) "></path>
                <polygon id="形状结合备份-9" fill="url(#linearGradient-4)" points="10.0436453 0 10.6078193 0 11.0585285 22.9163779 9.43399006 22.9163779"></polygon>
                <path d="M8.0086652,22.1186564 L8.0168785,22.0526271 C8.11476651,21.6609009 9.07551172,21.3533997 10.2462593,21.3533997 C11.4820484,21.3533997 12.4838533,21.6960168 12.4838533,22.1186564 L12.4838533,22.1186564 L12.4838533,132.487681 C12.4838533,132.91032 11.4820484,133.252938 10.2462593,133.252938 C9.01047019,133.252938 8.0086652,132.91032 8.0086652,132.487681 L8.0086652,132.487681 L8.0086652,22.1186564 Z" id="形状结合" fill="url(#linearGradient-5)"></path>
                <g id="监控" transform="translate(21.058141, 6.541219)">
                    <rect id="矩形" fill="#000000" fill-rule="nonzero" opacity="0" x="0" y="0.407984106" width="22.4999999" height="22.4999999"></rect>
                    <path d="M3.55368609,15.2021837 L3.56198207,15.1404231 C3.62215752,14.918266 4.00237996,14.7470378 4.46245345,14.7470378 C4.96435181,14.7470378 5.37122081,14.9508136 5.37122081,15.2021837 L5.37122081,15.2021837 L5.37122081,20.0246471 C5.37122081,20.2760173 4.96435181,20.4797931 4.46245345,20.4797931 C3.9605551,20.4797931 3.55368609,20.2760173 3.55368609,20.0246471 L3.55368609,20.0246471 L3.55368609,15.2021837 Z" id="形状结合备份-13" fill="url(#linearGradient-6)" transform="translate(4.462453, 17.613415) rotate(-237.000000) translate(-4.462453, -17.613415) "></path>
                    <path d="M5.93295886,14.6875276 L5.94125483,14.625767 C6.00143028,14.4036099 6.38165273,14.2323816 6.84172622,14.2323816 C7.34362457,14.2323816 7.75049358,14.4361574 7.75049358,14.6875276 L7.75049358,14.6875276 L7.75049358,19.509991 C7.75049358,19.7613612 7.34362457,19.965137 6.84172622,19.965137 C6.33982786,19.965137 5.93295886,19.7613612 5.93295886,19.509991 L5.93295886,19.509991 L5.93295886,14.6875276 Z" id="形状结合备份-13" fill="url(#linearGradient-7)" transform="translate(6.841726, 17.098759) rotate(-180.000000) translate(-6.841726, -17.098759) "></path>
                    <path d="M16.6075652,22.0000785 C16.5691313,22.7988359 16.2115286,23.0851974 15.3125088,22.7125558 L3.18743834,14.9472303 C2.78213381,14.6548322 2.54015906,14.1870144 2.53573252,13.6872657 L2.56748228,13.0572834 L16.6075652,22.0000785 Z" id="路径" fill="url(#linearGradient-8)"></path>
                    <polygon id="路径-2" fill="#D8D8D8" points="2.56748228 13.0572834 4.97809272 12.0986702 18.9119302 20.8493456 16.6075652 22.0000785"></polygon>
                    <path d="M16.2115286,22.8345418 C16.4438033,22.7142268 16.5891838,22.3977862 16.6075652,22.0000785 L18.9119302,20.8493456 C18.8851935,21.2470532 18.7297867,21.5194328 18.4975121,21.6397478 L16.2115286,22.8345418 Z" id="路径" fill="url(#linearGradient-9)"></path>
                    <g id="摄像头" transform="translate(12.278746, 11.341209) rotate(-1.000000) translate(-12.278746, -11.341209) translate(0.412306, 0.205402)">
                        <g id="机身" transform="translate(-0.000000, 0.000000)">
                            <path d="M8.24344495,0.28807578 L8.24074832,0.289 L23.7328812,10.2133936 L17.6135307,13.400068 L2.1179714,3.47241593 L2.11974832,3.471 L1.97956606,3.38833732 C1.544778,3.15248999 1.1465356,3.12617111 0.845748316,3.28258051 L6.96342787,0.0959061153 C7.29763599,-0.0711979343 7.75215901,-0.0277508959 8.24344495,0.28807578 Z" id="形状结合" fill="url(#linearGradient-10)"></path>
                            <path d="M17.6135307,13.400068 L15.2750816,22.2716132 L1.63838274,13.236306 C0.682547541,12.6247052 -0.0476972069,11.2460967 0.00243402337,10.1565782 L0.291524042,4.33968599 C0.344997335,3.25016753 1.16213618,2.86248611 2.1179714,3.47408698 L17.6135307,13.400068 Z" id="路径" fill="url(#linearGradient-11)"></path>
                            <polygon id="路径" fill="url(#linearGradient-12)" points="23.7328812 10.2133936 21.7226194 18.9963829 15.2700685 22.2699422 17.6135307 13.400068"></polygon>
                            <path d="M2.05447185,4.90282667 C2.39093284,5.14453143 2.59104641,5.53295063 2.59254691,5.94722703 C2.57416547,6.32154012 2.30345689,6.45856545 1.98763022,6.25636953 C1.65032999,6.0150184 1.44903336,5.62671471 1.44621307,5.21196917 C1.46459452,4.84099816 1.73530309,4.6989597 2.05447185,4.90282667 L2.05447185,4.90282667 Z" id="路径" fill="#2F68C7" fill-rule="nonzero"></path>
                        </g>
                        <g id="镜头" transform="translate(16.982021, 13.413436)" fill-rule="nonzero">
                            <path d="M1.46702996,5.07996336 C1.47705619,5.02147694 1.48708245,4.96131948 1.49877974,4.89949097 C1.51047704,4.83766247 1.5255164,4.76747877 1.54222678,4.69896612 C1.55893716,4.63045346 1.56227927,4.60872993 1.57564761,4.56361183 C1.58901595,4.51849373 1.60071322,4.47838875 1.6124105,4.43494169 C1.62410777,4.39149463 1.64917339,4.31629781 1.66922588,4.25781141 C1.68927837,4.19932501 1.69429149,4.18929876 1.70598877,4.15420689 C1.73105438,4.08736525 1.75611998,4.02052364 1.78285663,3.95535305 C1.79455391,3.92694535 1.80458016,3.90020872 1.81627744,3.87347206 C1.85638242,3.78156483 1.89815843,3.69132863 1.94160549,3.60109244 L1.95664485,3.57101372 C1.99842087,3.48913273 2.04019689,3.40390967 2.08364393,3.33038387 L2.12709099,3.25518705 C2.16886701,3.18166127 2.21398511,3.10646444 2.25910319,3.0346097 L2.28583985,2.99116264 C2.34098418,2.90593957 2.3994706,2.82405859 2.4529439,2.73883552 L2.50474617,2.66865182 C2.54819323,2.6101654 2.59331131,2.55167898 2.63842941,2.50154775 L2.71362624,2.40796948 C2.75206017,2.36118033 2.79383619,2.31439121 2.83394116,2.26760207 C2.87404614,2.22081292 2.90245382,2.1907342 2.93754566,2.15397131 C2.97263751,2.11720842 3.00605832,2.08211657 3.03947915,2.04869577 C3.09796557,1.9885383 3.15645199,1.93172292 3.2065832,1.88159169 L3.32021397,1.77965823 L3.40877912,1.70446139 C3.45723928,1.66268537 3.50737051,1.62425144 3.55750172,1.58581753 L3.64606688,1.51897589 C3.7007165,1.47957494 3.7564389,1.44168371 3.81317093,1.40534514 L3.89170984,1.35354289 C3.97359083,1.30341168 4.05881389,1.25495149 4.13902384,1.21150443 C4.21923379,1.16805737 4.30612789,1.13463657 4.37798265,1.10288678 L4.43814011,1.07782119 L4.56681023,1.03270308 C4.62696769,1.0126506 4.68712516,0.995940194 4.74728262,0.980900833 C4.80744008,0.965861473 4.82415049,0.960848346 4.86091338,0.954164176 C4.89767627,0.947480006 4.93109707,0.940795858 4.96618894,0.937453773 L5.09987219,0.922414413 L5.38060699,0.922414413 C5.44758719,0.927126003 5.51408358,0.937184277 5.57946083,0.952493133 L5.62457893,0.964190431 C5.67107362,0.977274707 5.71681717,0.992894451 5.76160426,1.01097955 L5.80338025,1.02768996 C5.86134544,1.05207607 5.91723106,1.08113659 5.97048433,1.11458408 L4.52169215,0.178801347 L4.50832381,0.178801347 C4.46800018,0.153898403 4.42614045,0.131573218 4.38299578,0.111959736 C4.37566356,0.107620863 4.36779985,0.104250701 4.35960121,0.101933481 L4.31782519,0.0852230783 C4.29671292,0.0748881406 4.27494217,0.0659565471 4.2526546,0.0584864207 C4.22926002,0.0584864207 4.20419443,0.0451181028 4.17912882,0.0384339329 L4.13568178,0.0250656151 L4.11228721,0.0250656151 C4.062156,0.0150393823 4.01202477,0.00668416989 3.96022252,-1.86517468e-14 L3.59259359,-1.86517468e-14 C3.56752797,-1.86517468e-14 3.55081757,-1.86517468e-14 3.52909404,0.0100262548 L3.42548952,0.0284077001 L3.36867414,0.0367629124 C3.34947551,0.0433239712 3.32995467,0.0489013535 3.31018772,0.0534733152 C3.2517013,0.0685126755 3.19154384,0.0868941207 3.12971533,0.106946608 L3.0662158,0.126999096 C3.04449227,0.126999096 3.02276874,0.143709499 3.00271626,0.152064711 L2.94088775,0.175459262 C2.86234884,0.208880067 2.78380993,0.243971915 2.70359998,0.285747955 C2.62339003,0.327523995 2.53649593,0.377655182 2.45628598,0.42778639 L2.37774707,0.479588663 C2.3209317,0.516351553 2.2674584,0.553114443 2.21064302,0.591548376 L2.12207786,0.66006103 C2.07027561,0.698494963 2.02181542,0.736928896 1.97168421,0.778704914 L1.88311907,0.853901737 L1.82797474,0.900690882 C1.80792225,0.917401285 1.7895408,0.937453773 1.77115936,0.955835218 C1.7110019,1.01153658 1.65530055,1.06723793 1.60405529,1.12293927 L1.54723991,1.17808363 L1.50212183,1.22821483 L1.3985173,1.34351663 L1.33000463,1.41871346 L1.27653134,1.48388405 L1.20300555,1.57579127 L1.1512033,1.63929082 C1.1227956,1.67605371 1.09605897,1.71448764 1.06932231,1.75125053 L1.01584902,1.82143423 L0.994125488,1.85151297 C0.947336342,1.91835461 0.900547219,1.9885383 0.853758074,2.058722 L0.853758074,2.07376136 C0.843876766,2.08762453 0.834944172,2.10213999 0.827021416,2.11720842 C0.795271653,2.16566858 0.763521868,2.21579981 0.733443147,2.26593102 L0.693338172,2.33778578 L0.651562154,2.41298261 L0.614799264,2.47648216 C0.5830495,2.53496858 0.5546418,2.593455 0.52456308,2.6435862 L0.50952372,2.67366493 C0.472760829,2.74886175 0.439340024,2.82238753 0.405919196,2.89758437 C0.401065773,2.91124018 0.395487722,2.92462751 0.389208793,2.93768935 C0.377511518,2.96609705 0.365814221,2.99283369 0.355787988,3.02124136 L0.308998842,3.13153006 L0.278920122,3.2200952 C0.265551804,3.253516 0.253854507,3.28860785 0.242157231,3.32202868 C0.230459956,3.35544951 0.225446829,3.36547574 0.218762659,3.38552823 C0.212078489,3.40558072 0.197039129,3.46239609 0.185341853,3.50083003 C0.173644578,3.53926396 0.158605196,3.58605311 0.146907898,3.6278291 C0.143222428,3.64308615 0.138760516,3.65814511 0.13353958,3.6729472 C0.13353958,3.70302592 0.121842305,3.73477571 0.113487093,3.76485443 C0.0984477325,3.83169606 0.0834083722,3.89853767 0.0700400324,3.96537931 C0.0700400324,3.98376075 0.06168482,4.0021422 0.0583427571,4.02052364 C0.0550006941,4.03890509 0.0466454817,4.10407568 0.0399613118,4.14585167 C0.0332771419,4.18762767 0.029935079,4.20600914 0.026592994,4.23608788 C0.0148957187,4.32966615 0.00654050631,4.42157337 0.00319842137,4.51515164 C-0.0318934266,5.312238 0.223775786,5.88540491 0.671614642,6.17115287 L2.12207786,7.10526456 C1.67925211,6.82118766 1.4235829,6.24634969 1.45366164,5.44926333 C1.45366164,5.35735611 1.46702996,5.26377784 1.47872726,5.17019955 C1.45867477,5.14012083 1.4636879,5.11004208 1.46702996,5.07996336 L1.46702996,5.07996336 Z" id="路径" fill="url(#linearGradient-13)"></path>
                            <path d="M4.15239218,1.19980713 C5.586145,0.45786511 6.69070282,1.15803112 6.62219014,2.76390113 C6.55367747,4.36977115 5.33381787,6.27308635 3.90006505,7.01335731 C2.46631224,7.75362827 1.36008337,7.05346228 1.43026707,5.44926333 C1.50045076,3.84506438 2.71863934,1.94174916 4.15239218,1.19980713 Z" id="路径" fill="#272D35"></path>
                            <path d="M4.15239218,1.19980713 C5.586145,0.45786511 6.69070282,1.15803112 6.62219014,2.76390113 C6.55367747,4.36977115 5.33381787,6.27308635 3.90006505,7.01335731 C2.46631224,7.75362827 1.36008337,7.05346228 1.43026707,5.44926333 C1.50045076,3.84506438 2.71863934,1.94174916 4.15239218,1.19980713 Z" id="路径" fill="#202B39"></path>
                            <path d="M4.20360368,2.09882206 C5.21959636,1.57244428 6.00331438,2.06874334 5.95318317,3.20505093 C5.90305196,4.34135851 5.04079501,5.68988827 4.02480235,6.21292395 C3.00880969,6.73595963 2.22843374,6.24133165 2.2768939,5.10502404 C2.32535407,3.96871644 3.18928206,2.62352878 4.20360368,2.09882206 L4.20360368,2.09882206 Z" id="路径" fill="#3B4D60"></path>
                            <path d="M4.60966,2.43588227 C4.7082514,2.38575106 4.77676407,2.43588227 4.77676407,2.54282885 C4.76485334,2.66378716 4.69594603,2.77180401 4.59127856,2.83358991 C4.49268716,2.88539216 4.42417451,2.83358991 4.42417451,2.72664333 C4.43660534,2.60586556 4.50537548,2.49806372 4.60966,2.43588227 L4.60966,2.43588227 Z M2.9085407,4.30911875 C3.00713209,4.25898754 3.07564475,4.30911875 3.07564475,4.41606536 C3.06426579,4.53720692 2.99521705,4.64544549 2.89015925,4.70682642 C2.79156786,4.75695763 2.7230552,4.70682642 2.7230552,4.59987981 C2.73361373,4.47845813 2.80288306,4.36987376 2.9085407,4.30911875 L2.9085407,4.30911875 Z M4.3005175,5.37858472 C4.39910889,5.32678247 4.46762157,5.37858472 4.46762157,5.48553131 C4.45468189,5.60613121 4.3860448,5.71372446 4.28213605,5.77629237 C4.18354466,5.82642358 4.115032,5.77629237 4.115032,5.66934578 C4.12559053,5.5479241 4.19485986,5.43933974 4.3005175,5.37858472 Z M4.48266093,3.54378217 C4.74501429,3.40842789 4.94721021,3.54378217 4.93384189,3.82953011 C4.90085673,4.15389132 4.71445713,4.44281069 4.4325297,4.60656398 C4.17184736,4.74191827 3.96965146,4.60656398 3.98134876,4.32081602 C4.01459837,3.99654759 4.20092703,3.70773816 4.48266093,3.54378217 Z" id="形状" fill="#220000"></path>
                        </g>
                    </g>
                </g>
                <g id="编组-13备份" transform="translate(-0.000000, 44.703163)">
                    <polygon id="矩形备份-28" fill="url(#linearGradient-14)" points="3.19192656 4.47568697 21.3350087 2.47568697 21.3350087 25.6517289 3.19192656 27.6517289"></polygon>
                    <polygon id="矩形备份-29" fill="#6E95FE" points="3.19192656 11.5205933 21.3350087 9.5205933 21.3350087 12.6554487 3.19192656 14.6554487"></polygon>
                    <polygon id="路径-63" fill="url(#linearGradient-15)" points="3.19192656 4.47568697 2.22044605e-15 2 2.22044605e-15 25.176042 3.19192656 27.6517289"></polygon>
                    <polygon id="路径-64" fill="url(#linearGradient-16)" points="-3.55271368e-15 2 3.19192656 4.47568697 21.3350087 2.47568697 18.3350087 1.47497473e-13"></polygon>
                </g>
            </g>
        </g>
    </g>
</svg>