<?xml version="1.0" encoding="UTF-8"?>
<svg width="70px" height="139px" viewBox="0 0 70 139" version="1.1" xmlns="http://www.w3.org/2000/svg" xmlns:xlink="http://www.w3.org/1999/xlink">
    <title>气象站</title>
    <defs>
        <linearGradient x1="0%" y1="50%" x2="125.8606%" y2="50%" id="linearGradient-1">
            <stop stop-color="#3F659D" offset="0%"></stop>
            <stop stop-color="#97B8D1" offset="100%"></stop>
        </linearGradient>
        <linearGradient x1="100%" y1="50%" x2="0%" y2="50%" id="linearGradient-2">
            <stop stop-color="#CFE7FD" offset="0%"></stop>
            <stop stop-color="#A2C2E9" offset="100%"></stop>
        </linearGradient>
        <linearGradient x1="0%" y1="50%" x2="100%" y2="50%" id="linearGradient-3">
            <stop stop-color="#638DCB" offset="0%"></stop>
            <stop stop-color="#C7F1F7" offset="100%"></stop>
        </linearGradient>
        <linearGradient x1="0%" y1="50%" x2="100%" y2="50%" id="linearGradient-4">
            <stop stop-color="#436699" offset="0%"></stop>
            <stop stop-color="#AFC9EC" offset="100%"></stop>
        </linearGradient>
        <linearGradient x1="0%" y1="50%" x2="100%" y2="50%" id="linearGradient-5">
            <stop stop-color="#638DCB" offset="0%"></stop>
            <stop stop-color="#C7F1F7" offset="100%"></stop>
        </linearGradient>
        <linearGradient x1="0%" y1="50%" x2="125.8606%" y2="50%" id="linearGradient-6">
            <stop stop-color="#3F659D" offset="0%"></stop>
            <stop stop-color="#97B8D1" offset="100%"></stop>
        </linearGradient>
        <linearGradient x1="-34.0002513%" y1="61.2188366%" x2="100%" y2="50%" id="linearGradient-7">
            <stop stop-color="#638DCB" offset="0%"></stop>
            <stop stop-color="#E4FCFF" offset="100%"></stop>
        </linearGradient>
        <linearGradient x1="0%" y1="50%" x2="128.613421%" y2="50%" id="linearGradient-8">
            <stop stop-color="#3F6FB5" offset="0%"></stop>
            <stop stop-color="#D5F1F9" offset="100%"></stop>
        </linearGradient>
        <linearGradient x1="22.5876974%" y1="50%" x2="100%" y2="50%" id="linearGradient-9">
            <stop stop-color="#7CA2DA" offset="0%"></stop>
            <stop stop-color="#E5FCFF" offset="100%"></stop>
        </linearGradient>
        <linearGradient x1="0%" y1="50%" x2="100%" y2="50%" id="linearGradient-10">
            <stop stop-color="#B9D1F3" offset="0%"></stop>
            <stop stop-color="#EEFDFF" offset="100%"></stop>
        </linearGradient>
        <linearGradient x1="0%" y1="50%" x2="143.918101%" y2="50%" id="linearGradient-11">
            <stop stop-color="#3F6FB5" offset="0%"></stop>
            <stop stop-color="#D5F1F9" offset="100%"></stop>
        </linearGradient>
        <linearGradient x1="0%" y1="50%" x2="125.8606%" y2="50%" id="linearGradient-12">
            <stop stop-color="#0449AE" offset="0%"></stop>
            <stop stop-color="#96C3E4" offset="100%"></stop>
        </linearGradient>
        <linearGradient x1="8.03725171%" y1="44.6490867%" x2="100%" y2="38.7811634%" id="linearGradient-13">
            <stop stop-color="#75A4FF" offset="0%"></stop>
            <stop stop-color="#D8E4FF" offset="100%"></stop>
        </linearGradient>
        <linearGradient x1="0%" y1="50%" x2="100%" y2="50%" id="linearGradient-14">
            <stop stop-color="#638DCB" offset="0%"></stop>
            <stop stop-color="#C7F1F7" offset="100%"></stop>
        </linearGradient>
        <linearGradient x1="27.4313393%" y1="59.6052897%" x2="115.576612%" y2="31.9997877%" id="linearGradient-15">
            <stop stop-color="#A9DAFC" offset="0%"></stop>
            <stop stop-color="#DAF3EF" offset="100%"></stop>
        </linearGradient>
    </defs>
    <g id="页面-1" stroke="none" stroke-width="1" fill="none" fill-rule="evenodd">
        <g id="画板" transform="translate(-298.000000, -57.000000)">
            <g id="气象站" transform="translate(298.605030, 57.810654)">
                <g id="编组-23" transform="translate(35.416934, 129.296752)">
                    <path d="M14.9494098,4.7682589 C14.9494098,6.72370573 11.6028704,8.30890859 7.47470491,8.30890859 C3.34653938,8.30890859 -1.31670674e-10,6.72370573 -1.31670674e-10,4.7682589 L0.000999999934,4.7966092 L-6.58353372e-11,4.79669985 L-6.58353372e-11,3.54064969 L0.333263985,3.71962727 C1.27685493,2.2761481 4.11727502,1.2276092 7.47470491,1.2276092 C10.9276601,1.2276092 13.8337671,2.33666275 14.6920484,3.84378051 L14.9494098,3.68904628 Z" id="形状结合" fill="url(#linearGradient-1)"></path>
                    <ellipse id="椭圆形" fill="url(#linearGradient-2)" cx="7.47470491" cy="3.54064969" rx="7.47470491" ry="3.54064969"></ellipse>
                </g>
                <path d="M52.3928282,29.7447369 L52.4007168,29.6664939 C52.4789631,29.2806086 53.1296561,28.9794803 53.9207781,28.9794803 C54.7646416,28.9794803 55.4487281,29.3220974 55.4487281,29.7447369 L55.4487281,29.7447369 L55.4487281,55.4492548 C55.4487281,55.8718944 54.7646416,56.2145115 53.9207781,56.2145115 C53.0769147,56.2145115 52.3928282,55.8718944 52.3928282,55.4492548 L52.3928282,55.4492548 L52.3928282,29.7447369 Z" id="形状结合备份-7" fill="url(#linearGradient-3)" transform="translate(53.920778, 42.596996) rotate(-120.000000) translate(-53.920778, -42.596996) "></path>
                <path d="M28.8065993,37.4830451 L28.8144879,37.4048021 C28.8927342,37.0189167 29.5434272,36.7177884 30.3345492,36.7177884 C31.1784127,36.7177884 31.8624992,37.0604055 31.8624992,37.4830451 L31.8624992,37.4830451 L31.8624992,63.187563 C31.8624992,63.6102026 31.1784127,63.9528197 30.3345492,63.9528197 C29.4906858,63.9528197 28.8065993,63.6102026 28.8065993,63.187563 L28.8065993,63.187563 L28.8065993,37.4830451 Z" id="形状结合备份-8" fill="url(#linearGradient-4)" transform="translate(30.334549, 50.335304) scale(-1, 1) rotate(-120.000000) translate(-30.334549, -50.335304) "></path>
                <polygon id="形状结合备份-9" fill="url(#linearGradient-5)" points="42.6890247 0 43.2531987 0 43.7039079 22.9163779 42.0793695 22.9163779"></polygon>
                <g id="风向杆" transform="translate(-0.000000, 25.941286)">
                    <g id="编组-23备份-2" transform="translate(16.766534, 15.493885)">
                        <path d="M-4.58592275e-10,2.24223266 L0.894541233,2.2417354 C1.75436296,1.67821196 3.15357939,1.31152144 4.73360228,1.31152144 C6.31362517,1.31152144 7.71284161,1.67821196 8.57266333,2.2417354 L9.46720456,2.24223266 L9.46720456,3.5537541 C9.46720456,4.792105 7.34789863,5.79598676 4.73360228,5.79598676 C2.11930593,5.79598676 -6.67046862e-10,4.792105 -6.67046862e-10,3.5537541 L-6.67046862e-10,3.5537541 L-4.58592275e-10,2.24223266 Z" id="形状结合" fill="url(#linearGradient-6)"></path>
                        <ellipse id="椭圆形" fill="url(#linearGradient-7)" cx="4.73360232" cy="2.24223266" rx="4.73360228" ry="2.24223266"></ellipse>
                    </g>
                    <path d="M20.2107743,7.53636061 L20.2194488,7.48493521 C20.2939289,7.26562808 20.838905,7.09539928 21.5001358,7.09539928 C22.2122305,7.09539928 22.7894973,7.2928244 22.7894973,7.53636061 L22.7894973,7.53636061 L22.7894973,17.4855618 C22.7894973,17.729098 22.2122305,17.9265231 21.5001358,17.9265231 C20.7880411,17.9265231 20.2107743,17.729098 20.2107743,17.4855618 L20.2107743,17.4855618 L20.2107743,7.53636061 Z" id="形状结合备份-10" fill="url(#linearGradient-8)"></path>
                    <g transform="translate(-0.000000, 0.000000)">
                        <path d="M24.4130994,-0.948325507 C25.0895344,-0.948325507 25.6378932,-0.673686107 25.6378932,-0.334901239 L25.6378932,-0.334901239 L25.0678341,15.1391241 L23.7583648,15.1391241 L23.1883057,-0.334901239 L23.1965458,-0.406439467 C23.2672961,-0.711519086 23.7849813,-0.948325507 24.4130994,-0.948325507 Z" id="形状结合备份-11" fill="url(#linearGradient-9)" transform="translate(24.413099, 7.095399) rotate(-90.000000) translate(-24.413099, -7.095399) "></path>
                        <g id="翼" transform="translate(31.879938, 0.945064)">
                            <g id="编组-13备份-5" transform="translate(-0.000000, -0.000000)">
                                <path d="M0.444293569,0 C0.595870412,0 0.71996266,0.120546184 0.724355988,0.272059344 L0.886435728,5.86172076 C0.890661479,6.00745467 0.782942964,6.13044262 0.641162559,6.14815075 L0.606068974,6.15033496 L0.606068974,6.15033496 L0.280454413,6.15033496 C0.134659247,6.15033496 0.0148450993,6.039097 0.00125379873,5.89686291 L0,5.86573581 L0,5.86573581 L0.164135448,0.272056552 C0.168582516,0.120529874 0.292701648,0 0.444293569,0 Z" id="矩形" fill="#CEE3FF"></path>
                                <path d="M0.613494036,0 C0.76333804,0 0.886719036,0.117779546 0.893676153,0.267461957 L1.15346533,5.85682773 C1.16065753,6.01156804 1.04104616,6.14284028 0.886305852,6.15003248 L0.873283215,6.15033496 L0.44323314,6.15033496 L0.44323314,0 L0.613494036,0 Z" id="路径" fill="#A2C3E4"></path>
                            </g>
                            <g id="编组-13备份-6" transform="translate(0.576887, 9.225502) scale(1, -1) translate(-0.576887, -9.225502) translate(-0.000000, 6.150335)">
                                <path d="M0.444293569,0 C0.595870412,0 0.71996266,0.120546184 0.724355988,0.272059344 L0.886435728,5.86172076 C0.890661479,6.00745467 0.782942964,6.13044262 0.641162559,6.14815075 L0.606068974,6.15033496 L0.606068974,6.15033496 L0.280454413,6.15033496 C0.134659247,6.15033496 0.0148450993,6.039097 0.00125379873,5.89686291 L0,5.86573581 L0,5.86573581 L0.164135448,0.272056552 C0.168582516,0.120529874 0.292701648,0 0.444293569,0 Z" id="矩形" fill="#CEE3FF"></path>
                                <path d="M0.613494036,0 C0.76333804,0 0.886719036,0.117779546 0.893676153,0.267461957 L1.15346533,5.85682773 C1.16065753,6.01156804 1.04104616,6.14284028 0.886305852,6.15003248 L0.873283215,6.15033496 L0.44323314,6.15033496 L0.44323314,0 L0.613494036,0 Z" id="路径" fill="#A2C3E4"></path>
                            </g>
                            <ellipse id="椭圆形备份-28" fill="#3767A7" transform="translate(0.576887, 6.150335) rotate(-360.000000) translate(-0.576887, -6.150335) " cx="0.576886704" cy="6.15033496" rx="1" ry="1"></ellipse>
                        </g>
                        <g id="编组-24" transform="translate(-0.000000, 0.000000)">
                            <path d="M0.72733496,0.678153361 L1.67146658,1.80115336 L19.4444666,7.04915336 L21.3690371,6.98833164 L20.9996693,7.72399458 C21.0338971,7.82012459 21.0391068,7.92757536 21.0079984,8.03292942 C20.9598172,8.19610298 20.8319678,8.32357811 20.6686537,8.37128063 L0.652469325,14.2178202 C0.387402871,14.2952436 0.109759969,14.1431289 0.0323365463,13.8780624 C-0.00665419317,13.7445739 0.0117110037,13.6008774 0.0830211769,13.4814859 L0.184466585,13.3111534 L0.735520166,12.1985279 L0.774466585,12.3231534 L3.26804582,8.14894091 C3.36192718,7.99175953 3.36239364,7.79583653 3.2692618,7.6382099 L0.0760687259,2.23369661 C-0.0644005079,1.99595094 0.0144576279,1.68934718 0.252203302,1.54887794 L0.306466585,1.52215336 L0.72733496,0.678153361 Z" id="形状结合" fill="#5D85BA"></path>
                            <path d="M1.21819856,0.359704074 L21.2401194,6.27168487 C21.5049577,6.34988511 21.6562578,6.6279728 21.5780575,6.89281112 C21.5298764,7.05598468 21.4020269,7.18345981 21.2387128,7.23116233 L1.22252848,13.0777019 C0.957462022,13.1551253 0.67981912,13.0030106 0.602395697,12.7379441 C0.563404958,12.6044556 0.581770154,12.4607591 0.653080328,12.3413676 L3.83810497,7.00882261 C3.93198633,6.85164123 3.93245279,6.65571823 3.83932095,6.49809159 L0.646127877,1.09357831 C0.505658643,0.855832638 0.584516779,0.549228876 0.822262453,0.408759642 C0.941718144,0.338180652 1.08513013,0.320412239 1.21819856,0.359704074 Z" id="路径-58" fill="url(#linearGradient-10)"></path>
                        </g>
                    </g>
                </g>
                <g id="风向杆备份" transform="translate(58.983251, 16.360481)">
                    <g id="编组-23备份-2" transform="translate(-0.000000, 16.295780)">
                        <path d="M-4.58606486e-10,2.24223266 L0.894541233,2.2417354 C1.75436296,1.67821196 3.15357939,1.31152144 4.73360228,1.31152144 C6.31362517,1.31152144 7.71284161,1.67821196 8.57266333,2.2417354 L9.46720456,2.24223266 L9.46720456,3.5537541 C9.46720456,4.792105 7.34789863,5.79598676 4.73360228,5.79598676 C2.11930593,5.79598676 -6.67061073e-10,4.792105 -6.67061073e-10,3.5537541 L-6.67061073e-10,3.5537541 L-4.58606486e-10,2.24223266 Z" id="形状结合" fill="url(#linearGradient-6)"></path>
                        <ellipse id="椭圆形" fill="url(#linearGradient-7)" cx="4.73360232" cy="2.24223266" rx="4.73360228" ry="2.24223266"></ellipse>
                    </g>
                    <path d="M5.02982087,13.5370297 C6.28916077,13.5370297 7.31005747,13.8343938 7.31005747,14.2012109 L7.31005743,14.2012109 L7.31005747,18.3903483 C7.31005747,18.7571654 6.28916077,19.0545294 5.02982087,19.0545294 C3.77048097,19.0545294 2.74958426,18.7571654 2.74958426,18.3903483 L2.74958426,18.3903483 L2.74958422,14.2012109 L2.7579541,14.1439028 C2.85770759,13.803916 3.83676202,13.5370297 5.02982087,13.5370297 Z" id="形状结合备份-10" fill="url(#linearGradient-11)"></path>
                    <g id="编组-23备份-3" transform="translate(0.296219, 11.483459)">
                        <path d="M-4.58606486e-10,2.24223266 L0.894541233,2.2417354 C1.75436296,1.67821196 3.15357939,1.31152144 4.73360228,1.31152144 C6.31362517,1.31152144 7.71284161,1.67821196 8.57266333,2.2417354 L9.46720456,2.24223266 L9.46720456,3.5537541 C9.46720456,4.792105 7.34789863,5.79598676 4.73360228,5.79598676 C2.11930593,5.79598676 -6.67061073e-10,4.792105 -6.67061073e-10,3.5537541 L-6.67061073e-10,3.5537541 L-4.58606486e-10,2.24223266 Z" id="形状结合" fill="url(#linearGradient-12)"></path>
                        <ellipse id="椭圆形" fill="url(#linearGradient-13)" cx="4.73360232" cy="2.24223266" rx="4.73360228" ry="2.24223266"></ellipse>
                    </g>
                    <g id="编组-23备份-4" transform="translate(0.296219, 9.577585)">
                        <path d="M-4.58606486e-10,2.24223266 L0.894541233,2.2417354 C1.75436296,1.67821196 3.15357939,1.31152144 4.73360228,1.31152144 C6.31362517,1.31152144 7.71284161,1.67821196 8.57266333,2.2417354 L9.46720456,2.24223266 L9.46720456,3.5537541 C9.46720456,4.792105 7.34789863,5.79598676 4.73360228,5.79598676 C2.11930593,5.79598676 -6.67061073e-10,4.792105 -6.67061073e-10,3.5537541 L-6.67061073e-10,3.5537541 L-4.58606486e-10,2.24223266 Z" id="形状结合" fill="url(#linearGradient-12)"></path>
                        <ellipse id="椭圆形" fill="url(#linearGradient-13)" cx="4.73360232" cy="2.24223266" rx="4.73360228" ry="2.24223266"></ellipse>
                    </g>
                    <g id="编组-23备份-5" transform="translate(0.296219, 7.741043)">
                        <path d="M-4.58606486e-10,2.24223266 L0.894541233,2.2417354 C1.75436296,1.67821196 3.15357939,1.31152144 4.73360228,1.31152144 C6.31362517,1.31152144 7.71284161,1.67821196 8.57266333,2.2417354 L9.46720456,2.24223266 L9.46720456,3.5537541 C9.46720456,4.792105 7.34789863,5.79598676 4.73360228,5.79598676 C2.11930593,5.79598676 -6.67061073e-10,4.792105 -6.67061073e-10,3.5537541 L-6.67061073e-10,3.5537541 L-4.58606486e-10,2.24223266 Z" id="形状结合" fill="url(#linearGradient-12)"></path>
                        <ellipse id="椭圆形" fill="url(#linearGradient-13)" cx="4.73360232" cy="2.24223266" rx="4.73360228" ry="2.24223266"></ellipse>
                    </g>
                    <g id="编组-23备份-6" transform="translate(0.296219, 5.795987)">
                        <path d="M-4.58606486e-10,2.24223266 L0.894541233,2.2417354 C1.75436296,1.67821196 3.15357939,1.31152144 4.73360228,1.31152144 C6.31362517,1.31152144 7.71284161,1.67821196 8.57266333,2.2417354 L9.46720456,2.24223266 L9.46720456,3.5537541 C9.46720456,4.792105 7.34789863,5.79598676 4.73360228,5.79598676 C2.11930593,5.79598676 -6.67061073e-10,4.792105 -6.67061073e-10,3.5537541 L-6.67061073e-10,3.5537541 L-4.58606486e-10,2.24223266 Z" id="形状结合" fill="url(#linearGradient-12)"></path>
                        <ellipse id="椭圆形" fill="url(#linearGradient-13)" cx="4.73360232" cy="2.24223266" rx="4.73360228" ry="2.24223266"></ellipse>
                    </g>
                    <g id="编组-23备份-7" transform="translate(0.296219, 3.890112)">
                        <path d="M-4.58606486e-10,2.24223266 L0.894541233,2.2417354 C1.75436296,1.67821196 3.15357939,1.31152144 4.73360228,1.31152144 C6.31362517,1.31152144 7.71284161,1.67821196 8.57266333,2.2417354 L9.46720456,2.24223266 L9.46720456,3.5537541 C9.46720456,4.792105 7.34789863,5.79598676 4.73360228,5.79598676 C2.11930593,5.79598676 -6.67061073e-10,4.792105 -6.67061073e-10,3.5537541 L-6.67061073e-10,3.5537541 L-4.58606486e-10,2.24223266 Z" id="形状结合" fill="url(#linearGradient-12)"></path>
                        <ellipse id="椭圆形" fill="url(#linearGradient-13)" cx="4.73360232" cy="2.24223266" rx="4.73360228" ry="2.24223266"></ellipse>
                    </g>
                    <g id="编组-23备份-8" transform="translate(0.296219, 1.945056)">
                        <path d="M-4.58606486e-10,2.24223266 L0.894541233,2.2417354 C1.75436296,1.67821196 3.15357939,1.31152144 4.73360228,1.31152144 C6.31362517,1.31152144 7.71284161,1.67821196 8.57266333,2.2417354 L9.46720456,2.24223266 L9.46720456,3.5537541 C9.46720456,4.792105 7.34789863,5.79598676 4.73360228,5.79598676 C2.11930593,5.79598676 -6.67061073e-10,4.792105 -6.67061073e-10,3.5537541 L-6.67061073e-10,3.5537541 L-4.58606486e-10,2.24223266 Z" id="形状结合" fill="url(#linearGradient-12)"></path>
                        <ellipse id="椭圆形" fill="url(#linearGradient-13)" cx="4.73360232" cy="2.24223266" rx="4.73360228" ry="2.24223266"></ellipse>
                    </g>
                    <g id="编组-23备份-9" transform="translate(0.296219, 0.000000)">
                        <path d="M-4.58606486e-10,2.24223266 L0.894541233,2.2417354 C1.75436296,1.67821196 3.15357939,1.31152144 4.73360228,1.31152144 C6.31362517,1.31152144 7.71284161,1.67821196 8.57266333,2.2417354 L9.46720456,2.24223266 L9.46720456,3.5537541 C9.46720456,4.792105 7.34789863,5.79598676 4.73360228,5.79598676 C2.11930593,5.79598676 -6.67061073e-10,4.792105 -6.67061073e-10,3.5537541 L-6.67061073e-10,3.5537541 L-4.58606486e-10,2.24223266 Z" id="形状结合" fill="url(#linearGradient-12)"></path>
                        <ellipse id="椭圆形" fill="url(#linearGradient-13)" cx="4.73360232" cy="2.24223266" rx="4.73360228" ry="2.24223266"></ellipse>
                    </g>
                </g>
                <path d="M40.6540446,22.1186564 L40.6622579,22.0526271 C40.7601459,21.6609009 41.7208911,21.3533997 42.8916387,21.3533997 C44.1274277,21.3533997 45.1292327,21.6960168 45.1292327,22.1186564 L45.1292327,22.1186564 L45.1292327,132.487681 C45.1292327,132.91032 44.1274277,133.252938 42.8916387,133.252938 C41.6558496,133.252938 40.6540446,132.91032 40.6540446,132.487681 L40.6540446,132.487681 L40.6540446,22.1186564 Z" id="形状结合" fill="url(#linearGradient-14)"></path>
                <g id="太阳能" transform="translate(22.243324, 61.256032)">
                    <polygon id="路径-62备份" fill="#56838A" points="0 8.02939078 1.1401183 6.6185112 1.93449049 7.72822487 42.5129356 1.41087958 42.5129356 21.8092834 43.6530539 22.7912037 42.5129356 24.2020833 0 30.664794"></polygon>
                    <polygon id="路径-62" fill="url(#linearGradient-15)" points="1.1401183 6.6185112 43.6530539 0 43.6530539 22.7912037 1.1401183 29.2539144"></polygon>
                    <polygon id="路径-62" fill="#1354A8" points="2.38404251 7.71458214 42.4091297 1.48338488 42.4091297 21.6860153 2.38404251 27.7705295"></polygon>
                    <polygon id="矩形" fill="#789DCD" points="5.70401345 7.17354957 6.84413175 6.99240254 6.84413175 27.0603844 5.70401345 27.2354291"></polygon>
                    <polygon id="矩形备份-21" fill="#789DCD" points="13.7470858 6.09747054 14.8872041 5.91632351 14.8872041 25.9843054 13.7470858 26.15935"></polygon>
                    <polygon id="矩形备份-22" fill="#789DCD" points="21.7901581 4.68659096 22.9302764 4.50544393 22.9302764 24.5734258 21.7901581 24.7484705"></polygon>
                    <polygon id="矩形备份-23" fill="#789DCD" points="29.8332305 3.32464023 30.9733488 3.1434932 30.9733488 23.211475 29.8332305 23.3865197"></polygon>
                    <polygon id="矩形备份-24" fill="#789DCD" points="37.8763028 2.2961555 39.0164211 2.11500847 39.0164211 22.1829903 37.8763028 22.358035"></polygon>
                    <polygon id="矩形备份-25" fill="#789DCD" transform="translate(22.396586, 14.685426) rotate(-99.000000) translate(-22.396586, -14.685426) " points="21.814538 -5.66876335 22.973252 -5.48524108 22.9786342 35.0396163 21.8389008 34.8591002"></polygon>
                </g>
            </g>
        </g>
    </g>
</svg>